<svg width="20" height="20" viewBox="0 0 20 20" fill="none" xmlns="http://www.w3.org/2000/svg">
<path d="M4.6738 4.0552L12.6468 1.8789L12.2246 1.02544C11.9484 0.470698 11.2746 0.241614 10.7198 0.517863L3.58228 4.0552H4.6738Z" fill="#FFDF39"/>
<path d="M15.1218 1.94177C15.023 1.94177 14.9242 1.95525 14.8254 1.9822L12.9523 2.49427L7.23187 4.05518H13.7249H16.5547L16.2044 2.77052C16.0696 2.26968 15.6159 1.94177 15.1218 1.94177Z" fill="#FFDF39"/>
<path d="M17.7249 4.84128H17.4688H17.1207H16.7726H14.1157H4.35261H3.07243H1.99439H1.7945H1.12521C0.770354 4.84128 0.453678 5.00523 0.247052 5.26351C0.152723 5.38255 0.0808535 5.51955 0.0404267 5.67003C0.0157215 5.76436 0 5.86318 0 5.96424V6.099V7.37918V18.4763C0 19.0962 0.503088 19.5993 1.12296 19.5993H17.7226C18.3425 19.5993 18.8456 19.0962 18.8456 18.4763V15.3432H12.1819C11.1286 15.3432 10.2729 14.4875 10.2729 13.4342V12.4056V12.0574V11.7093V10.9367C10.2729 10.4202 10.4795 9.95079 10.8141 9.60716C11.1106 9.30169 11.5081 9.09507 11.9528 9.04341C12.027 9.03445 12.1033 9.02994 12.1797 9.02994H17.9113H18.2594H18.6075H18.8456V5.96424C18.8478 5.34437 18.3448 4.84128 17.7249 4.84128Z" fill="#FFDF39"/>
<path d="M19.6339 10.1035C19.5216 10.0002 19.3891 9.92157 19.2408 9.86991C19.1263 9.83176 19.005 9.8093 18.877 9.8093H18.8478H18.8253H18.4772H17.2217H12.1819C11.562 9.8093 11.0589 10.3124 11.0589 10.9323V11.4915V11.8396V12.1877V13.432C11.0589 14.0518 11.562 14.5549 12.1819 14.5549H18.8478H18.877C19.005 14.5549 19.1263 14.5325 19.2408 14.4943C19.3891 14.4449 19.5216 14.364 19.6339 14.2607C19.8585 14.0563 20 13.7599 20 13.432V10.9323C20 10.6043 19.8585 10.3078 19.6339 10.1035ZM14.5266 12.4056C14.5266 12.7155 14.2751 12.967 13.9651 12.967H13.5923C13.2824 12.967 13.0308 12.7155 13.0308 12.4056V12.0327C13.0308 11.8531 13.1139 11.6936 13.2464 11.5925C13.343 11.5184 13.4621 11.4713 13.5923 11.4713H13.6866H13.9651C14.2751 11.4713 14.5266 11.7228 14.5266 12.0327V12.4056Z" fill="#FFDF39"/>
</svg>
